<svg xmlns="http://www.w3.org/2000/svg" fill="none" viewBox="0 0 500 500" height="500" width="500">
<g clip-path="url(#clip0_1103_5237)">
<path fill="#6DEDC3" d="M403.313 342.124C403.313 332.374 400.875 325.061 399.521 321.54C389.771 298.249 365.125 293.374 358.354 292.02C347.792 289.582 337.229 287.415 326.396 285.79C308.521 283.082 297.958 283.353 291.458 276.311C290.104 274.957 287.396 271.436 287.396 266.29C287.396 257.353 296.333 245.978 315.833 245.978C323.958 245.978 331.271 248.145 333.708 248.686C348.063 253.29 355.375 259.249 365.938 269.54L401.146 244.353C390.313 234.874 386.521 231.624 380.021 227.29C354.021 209.686 328.563 208.332 316.917 208.332C285.5 208.332 266.813 219.436 257.333 228.374C248.125 237.04 242.979 246.79 240.813 258.978C240 264.395 239.729 270.624 239.729 272.249C239.729 280.103 241.354 286.332 242.167 289.04C244.604 296.082 248.396 300.957 250.292 303.124C259.771 314.499 272.5 319.645 286.313 323.165C295.25 325.332 304.458 326.957 313.396 328.04C330.458 330.478 355.917 331.02 355.917 348.624C355.917 363.249 336.958 368.665 335.604 368.936C329.375 370.832 322.875 370.832 320.708 370.832C304.729 370.832 286.313 365.145 273.854 354.853C270.063 351.874 266.271 347.54 265.458 346.728L229.167 369.478C236.75 378.415 239.188 381.124 244.333 385.457C257.063 395.749 278.458 408.478 316.375 408.478C322.875 408.478 329.375 407.936 335.604 407.124C344.813 406.04 379.208 401.978 395.729 371.915C402.771 358.915 403.313 347.54 403.313 342.124Z" clip-rule="evenodd" fill-rule="evenodd"></path>
<path fill="#6DEDC3" d="M31.25 156.25V468.75H465.208V156.25H31.25ZM0 125H496.458V500H0V125Z"></path>
</g>
<defs>
<clipPath id="clip0_1103_5237">
<rect fill="white" height="500" width="500"></rect>
</clipPath>
</defs>
</svg>
