<svg xmlns="http://www.w3.org/2000/svg" fill="none" viewBox="0 0 32 33" height="33" width="32">
<path fill="white" d="M25.28 6.75871C25.56 7.03871 25.95 7.19871 26.34 7.19871C26.44 7.19871 26.54 7.18871 26.64 7.16871L26.6646 7.16328C26.748 7.14494 26.8381 7.1251 26.92 7.08871C27.01 7.04871 27.1 6.99871 27.18 6.94871C27.26 6.89871 27.33 6.82871 27.4 6.75871C27.68 6.47871 27.84 6.08871 27.84 5.69871C27.84 5.30871 27.68 4.91871 27.4 4.63871C27.33 4.56871 27.26 4.50871 27.18 4.45871C27.1 4.39871 27.01 4.35871 26.92 4.31871C26.83 4.27871 26.73 4.24871 26.64 4.22871C26.15 4.13871 25.63 4.28871 25.28 4.63871C25 4.91871 24.84 5.29871 24.84 5.69871C24.84 6.09871 25 6.47871 25.28 6.75871ZM20.48 20.9287C20.25 21.7187 20.71 22.5487 21.51 22.7787C21.65 22.8187 21.79 22.8287 21.92 22.8287C22.57 22.8287 23.18 22.3987 23.36 21.7387C23.59 20.9387 23.13 20.1187 22.33 19.8887C21.53 19.6687 20.7 20.1287 20.48 20.9287ZM21.95 15.7187C21.73 16.5087 22.19 17.3387 22.99 17.5687C23.12 17.6087 23.26 17.6187 23.39 17.6187C24.05 17.6187 24.65 17.1887 24.84 16.5287C25.06 15.7287 24.6 14.9087 23.8 14.6787C23.01 14.4587 22.18 14.9187 21.95 15.7187ZM23.42 10.4987C23.2 11.2987 23.66 12.1287 24.46 12.3587C24.6 12.3987 24.73 12.4087 24.87 12.4087C25.52 12.4087 26.13 11.9787 26.31 11.3187C26.54 10.5287 26.07 9.69871 25.28 9.46871C24.48 9.23871 23.65 9.70871 23.42 10.4987ZM20.45 28.0387C20.35 28.0387 20.25 28.0287 20.15 28.0087L20.1254 28.0033L20.1254 28.0033C20.042 27.9849 19.9519 27.9651 19.87 27.9287C19.78 27.8887 19.69 27.8387 19.61 27.7887C19.53 27.7387 19.45 27.6687 19.38 27.5987C19.31 27.5387 19.25 27.4587 19.2 27.3787C19.14 27.2987 19.1 27.2087 19.06 27.1187C19.02 27.0287 18.99 26.9287 18.97 26.8387C18.95 26.7387 18.94 26.6387 18.94 26.5387C18.94 26.1487 19.1 25.7587 19.38 25.4787C19.45 25.4087 19.53 25.3487 19.61 25.2987C19.69 25.2387 19.78 25.1987 19.87 25.1587C19.96 25.1187 20.06 25.0887 20.15 25.0687C20.64 24.9687 21.16 25.1387 21.51 25.4787C21.79 25.7587 21.95 26.1487 21.95 26.5387C21.95 26.6387 21.95 26.7387 21.92 26.8387C21.9 26.9287 21.87 27.0287 21.83 27.1187C21.79 27.2087 21.75 27.2987 21.69 27.3787C21.64 27.4587 21.58 27.5387 21.51 27.5987C21.23 27.8787 20.84 28.0387 20.45 28.0387ZM17.16 20.3287C16.43 20.7187 16.15 21.6187 16.54 22.3587C16.81 22.8587 17.33 23.1587 17.86 23.1587C18.1 23.1587 18.34 23.0987 18.56 22.9787C19.3 22.5887 19.58 21.6887 19.19 20.9487C18.8 20.2187 17.89 19.9387 17.16 20.3287ZM14.58 15.4387C14.3835 15.5437 14.2196 15.6857 14.0924 15.8515C14.0713 15.8771 14.0507 15.9034 14.03 15.9309C14.0167 15.9549 14.0033 15.9783 13.9902 16.0012L13.9902 16.0013C13.954 16.0644 13.9194 16.125 13.89 16.1909C13.8759 16.2333 13.8618 16.278 13.8487 16.3227C13.8377 16.3579 13.8281 16.3936 13.8197 16.4295C13.8163 16.4435 13.8131 16.4573 13.81 16.4709C13.79 16.5709 13.78 16.6709 13.78 16.7709C13.78 16.8223 13.7828 16.8736 13.7883 16.9247C13.807 17.1091 13.86 17.2934 13.95 17.4687C14.1411 17.8296 14.4573 18.0803 14.8173 18.1961C14.9668 18.2451 15.1234 18.2709 15.28 18.2709C15.67 18.2709 16.06 18.1109 16.34 17.8309C16.62 17.5509 16.78 17.1609 16.78 16.7709C16.78 16.7424 16.7792 16.7139 16.7776 16.6854C16.7701 16.5356 16.7401 16.3854 16.686 16.2399C16.6807 16.2233 16.6754 16.207 16.67 16.1909C16.6584 16.1648 16.6459 16.1394 16.6328 16.1145C16.6255 16.0991 16.6179 16.0839 16.61 16.0687C16.5888 16.0285 16.5661 15.9897 16.542 15.9523L16.53 15.9309L16.5097 15.9042C16.0792 15.2891 15.2531 15.0791 14.58 15.4387ZM9.07 13.4787C8.68 14.2187 8.96 15.1187 9.69 15.5087C9.91 15.6287 10.15 15.6787 10.39 15.6787C10.93 15.6787 11.45 15.3887 11.72 14.8887C12.11 14.1487 11.82 13.2487 11.09 12.8587C10.36 12.4687 9.45 12.7487 9.07 13.4787ZM5.5 13.0987C5.41 13.0987 5.31 13.0887 5.21 13.0687C5.11001 13.0487 5.02001 13.0187 4.93002 12.9887L4.93 12.9887C4.84 12.9487 4.75 12.8987 4.67 12.8487C4.59 12.7887 4.51 12.7287 4.44 12.6587C4.16 12.3787 4 11.9987 4 11.5987C4 11.1987 4.16 10.8187 4.44 10.5387C4.51 10.4687 4.59 10.4087 4.67 10.3487C4.75 10.2987 4.84 10.2487 4.93 10.2187C5.02 10.1787 5.11 10.1487 5.21 10.1287C5.7 10.0287 6.22 10.1887 6.56 10.5387C6.84 10.8187 7 11.2087 7 11.5987C7 11.9887 6.84 12.3787 6.56 12.6587C6.29 12.9387 5.9 13.0987 5.5 13.0987ZM10.31 8.67871C9.51 8.90871 9.04 9.73871 9.27 10.5387C9.46 11.1987 10.06 11.6287 10.71 11.6287C10.85 11.6287 10.98 11.6087 11.12 11.5687C11.92 11.3487 12.38 10.5187 12.16 9.71871C11.93 8.91871 11.1 8.45871 10.31 8.67871ZM15.52 7.20871C14.72 7.43871 14.25 8.25871 14.48 9.05871C14.67 9.71871 15.27 10.1487 15.92 10.1487C16.06 10.1487 16.19 10.1287 16.33 10.0987C17.13 9.86871 17.59 9.03871 17.37 8.23871C17.14 7.44871 16.31 6.97871 15.52 7.20871ZM20.73 5.72871C19.93 5.95871 19.46 6.78871 19.69 7.58871C19.88 8.24871 20.48 8.67871 21.13 8.67871C21.27 8.67871 21.4 8.65871 21.54 8.61871C22.34 8.39871 22.8 7.56871 22.58 6.76871C22.35 5.96871 21.52 5.50871 20.73 5.72871ZM17.89 14.1609C18.17 14.4409 18.55 14.6009 18.95 14.6009C19.05 14.6009 19.14 14.5909 19.24 14.5709C19.34 14.5509 19.43 14.5209 19.52 14.4809C19.61 14.4509 19.7 14.4009 19.78 14.3509L19.78 14.3509C19.86 14.2909 19.94 14.2309 20.01 14.1609C20.29 13.8809 20.45 13.4909 20.45 13.1009C20.45 13.0009 20.44 12.9009 20.42 12.8109C20.4 12.7109 20.37 12.6209 20.33 12.5309C20.3 12.4309 20.25 12.3509 20.2 12.2709C20.14 12.1809 20.08 12.1109 20.01 12.0409C19.94 11.9709 19.86 11.9109 19.78 11.8509L19.78 11.8509C19.7 11.8009 19.61 11.7509 19.52 11.7109C19.43 11.6809 19.34 11.6509 19.24 11.6309C18.75 11.5309 18.24 11.6909 17.89 12.0409C17.82 12.1109 17.76 12.1809 17.7 12.2709C17.65 12.3509 17.6 12.4309 17.56 12.5309L17.56 12.5309C17.53 12.6209 17.5 12.7109 17.48 12.8109C17.45 12.9009 17.45 13.0009 17.45 13.1009C17.45 13.4909 17.61 13.8809 17.89 14.1609Z" clip-rule="evenodd" fill-rule="evenodd"></path>
</svg>
