<svg xmlns="http://www.w3.org/2000/svg" fill="none" viewBox="0 0 32 33" height="33" width="32">
<path fill="white" d="M25.7199 7.18859C25.4199 7.20859 25.1099 7.13859 24.8299 6.94859C24.1399 6.50859 23.9499 5.56859 24.3899 4.87859C24.8399 4.17859 25.7699 3.98859 26.4699 4.43859C27.1699 4.88859 27.3599 5.80859 26.9099 6.50859C26.6299 6.92859 26.1899 7.16859 25.7199 7.18859ZM4.61996 4.76897C5.28996 4.28897 6.22996 4.43897 6.71996 5.10897C7.19996 5.78897 7.04996 6.71897 6.37996 7.20897C6.10996 7.39897 5.79996 7.48897 5.49996 7.48897C5.02996 7.48897 4.57996 7.26897 4.27996 6.86897C3.79996 6.19897 3.94996 5.25897 4.61996 4.76897ZM8.41988 11.5476C8.72988 11.5476 9.02988 11.4576 9.29988 11.2576C9.96988 10.7776 10.1199 9.83757 9.63988 9.16757C9.14988 8.49757 8.21988 8.34757 7.53988 8.82757C6.86988 9.30757 6.71988 10.2476 7.19988 10.9176C7.49988 11.3276 7.95988 11.5476 8.41988 11.5476ZM13.39 16.9408C14.06 16.4608 15 16.6108 15.48 17.2808C15.97 17.9608 15.82 18.8908 15.14 19.3808C14.88 19.5708 14.57 19.6608 14.27 19.6608C13.8 19.6608 13.34 19.4408 13.05 19.0408C12.57 18.3708 12.72 17.4308 13.39 16.9408ZM16.3099 20.9994C16.9899 20.5194 17.9199 20.6694 18.4099 21.3394C18.8899 22.0094 18.7399 22.9494 18.0699 23.4294C17.7999 23.6294 17.4999 23.7194 17.1899 23.7194C16.7299 23.7194 16.2699 23.4994 15.9699 23.0894C15.4899 22.4194 15.6399 21.4794 16.3099 20.9994ZM19.2399 25.0574C18.5599 25.5374 18.4099 26.4774 18.8999 27.1474C19.1899 27.5574 19.6499 27.7674 20.1099 27.7674C20.4199 27.7674 20.7299 27.6774 20.9899 27.4874C21.6599 27.0074 21.8099 26.0674 21.3299 25.3974C20.8499 24.7174 19.9099 24.5674 19.2399 25.0574ZM10.13 14.9794C9.64 14.3094 9.8 13.3694 10.47 12.8894C11.14 12.3994 12.08 12.5494 12.56 13.2294C13.05 13.8994 12.89 14.8394 12.22 15.3194C11.96 15.5094 11.65 15.5994 11.35 15.5994C10.88 15.5994 10.42 15.3894 10.13 14.9794ZM11.0399 7.48897C11.3399 7.48897 11.6499 7.39897 11.9099 7.20897C12.5799 6.71897 12.7399 5.78897 12.2499 5.10897C11.7699 4.43897 10.8299 4.28897 10.1599 4.76897C9.48994 5.25897 9.32995 6.19897 9.81995 6.86897C10.1099 7.26897 10.5699 7.48897 11.0399 7.48897ZM13.9599 11.5476C13.4899 11.5476 13.0299 11.3276 12.7399 10.9176C12.2599 10.2476 12.4099 9.31757 13.0799 8.82757C13.7499 8.34757 14.6899 8.49757 15.1699 9.16757C15.6599 9.83757 15.5099 10.7776 14.8299 11.2576C14.5699 11.4576 14.2599 11.5476 13.9599 11.5476ZM23.9399 21.3394C23.4599 20.6694 22.5199 20.5194 21.8499 20.9994C21.1799 21.4794 21.0299 22.4194 21.5099 23.0894C21.7999 23.4994 22.2599 23.7194 22.7299 23.7194C23.0299 23.7194 23.3399 23.6194 23.5999 23.4294C24.2799 22.9494 24.4299 22.0094 23.9399 21.3394ZM24.7701 25.0574C25.4501 24.5674 26.3801 24.7174 26.8701 25.3974C27.3501 26.0674 27.2001 27.0074 26.5301 27.4874C26.2601 27.6774 25.9601 27.7674 25.6501 27.7674C25.1901 27.7674 24.7301 27.5574 24.4301 27.1474C23.9501 26.4774 24.1001 25.5374 24.7701 25.0574ZM18.9301 16.9408C18.2501 17.4308 18.1001 18.3608 18.5901 19.0408C18.8801 19.4408 19.3401 19.6608 19.8101 19.6608C20.1101 19.6608 20.4201 19.5708 20.6801 19.3808C21.3501 18.8908 21.5101 17.9608 21.0201 17.2808C20.5401 16.6108 19.6001 16.4608 18.9301 16.9408ZM16.8801 15.5994C16.4201 15.5994 15.9601 15.3894 15.6601 14.9794C15.1801 14.3094 15.3301 13.3694 16.0001 12.8894C16.6801 12.3994 17.6101 12.5494 18.1001 13.2294C18.5801 13.8994 18.4301 14.8394 17.7601 15.3194C17.4901 15.5094 17.1901 15.5994 16.8801 15.5994ZM20.73 11.3883C21.01 11.5683 21.32 11.6483 21.62 11.6283C22.09 11.6083 22.54 11.3583 22.81 10.9483C23.26 10.2583 23.06 9.31828 22.37 8.86828C21.68 8.41828 20.75 8.60828 20.29 9.30828C19.85 9.99828 20.04 10.9383 20.73 11.3883ZM6.32002 25.4073C5.63002 24.9573 4.69002 25.1473 4.24002 25.8473C3.79002 26.5373 3.99002 27.4773 4.68002 27.9273C4.96002 28.1073 5.27002 28.1773 5.57002 28.1573C6.04002 28.1373 6.48002 27.8973 6.76002 27.4773C7.20002 26.7873 7.02002 25.8573 6.32002 25.4073ZM8.66003 21.4099C9.11003 20.7199 10.05 20.5199 10.74 20.9599C11.44 21.4099 11.62 22.3499 11.18 23.0399C10.9 23.4499 10.46 23.6999 9.99003 23.7199C9.69003 23.7399 9.38003 23.6599 9.10003 23.4799C8.40003 23.0299 8.21003 22.0999 8.66003 21.4099Z" clip-rule="evenodd" fill-rule="evenodd"></path>
</svg>
