<svg xmlns="http://www.w3.org/2000/svg" fill="none" viewBox="0 0 44 44" height="44" width="44">
<path fill="#FA5A60" d="M30.9918 29.638C30.9918 30.3555 30.559 31.002 29.8958 31.2755C29.2325 31.549 28.4698 31.3954 27.9641 30.8865C27.4584 30.3775 27.3096 29.6138 27.5874 28.9523C27.8651 28.2908 28.5144 27.8622 29.2318 27.8667C29.7006 27.8667 30.15 28.0537 30.4803 28.3862C30.8107 28.7187 30.9948 29.1693 30.9918 29.638Z"></path>
<path fill="#FA5A60" d="M26.3212 32.3343C26.315 33.3048 25.5243 34.0871 24.5538 34.083C23.5832 34.0788 22.7992 33.2898 22.8013 32.3193C22.8033 31.3487 23.5907 30.563 24.5612 30.563C25.03 30.563 25.4794 30.75 25.8098 31.0825C26.1401 31.415 26.3242 31.8655 26.3212 32.3343Z"></path>
<path fill="#FA5A60" d="M26.3212 12.2073C26.315 13.1778 25.5243 13.9602 24.5538 13.956C23.5832 13.9519 22.7992 13.1628 22.8013 12.1923C22.8033 11.2218 23.5907 10.436 24.5612 10.436C25.03 10.436 25.4794 10.623 25.8098 10.9555C26.1401 11.288 26.3242 11.7386 26.3212 12.2073Z"></path>
<path fill="#FA5A60" d="M30.9916 14.9036C30.9854 15.8741 30.1947 16.6564 29.2242 16.6523C28.2536 16.6482 27.4696 15.8591 27.4717 14.8886C27.4737 13.918 28.2611 13.1323 29.2316 13.1323C29.7004 13.1323 30.1498 13.3193 30.4802 13.6518C30.8106 13.9843 30.9947 14.4349 30.9916 14.9036Z"></path>
<path fill="#FA5A60" d="M10.0411 19.5745C10.0473 20.545 10.838 21.3273 11.8085 21.3232C12.7791 21.3191 13.5631 20.53 13.561 19.5595C13.559 18.5889 12.7716 17.8032 11.8011 17.8032C11.3323 17.8032 10.8829 17.9902 10.5525 18.3227C10.2221 18.6552 10.038 19.1058 10.0411 19.5745Z"></path>
<path fill="#FA5A60" d="M10.041 24.9558C10.041 25.9278 10.829 26.7158 11.801 26.7158C12.773 26.7158 13.561 25.9278 13.561 24.9558C13.561 23.9838 12.773 23.1958 11.801 23.1958C10.829 23.1958 10.041 23.9838 10.041 24.9558Z"></path>
<path fill="#FA5A60" d="M12.7373 29.6267C12.7373 30.5987 13.5253 31.3867 14.4973 31.3867C15.4693 31.3867 16.2573 30.5987 16.2573 29.6267C16.2573 28.6547 15.4693 27.8667 14.4973 27.8667C13.5253 27.8667 12.7373 28.6547 12.7373 29.6267Z"></path>
<path fill="#FA5A60" d="M17.397 32.3343C17.397 33.3111 18.1877 34.1035 19.1645 34.1056C20.1413 34.1076 20.9354 33.3186 20.9395 32.3418C20.9437 31.365 20.1563 30.5692 19.1795 30.563C18.7088 30.56 18.2565 30.7456 17.9237 31.0785C17.5909 31.4113 17.4052 31.8636 17.4083 32.3343"></path>
<path fill="#FA5A60" d="M17.4082 12.2073C17.4144 13.1764 18.2029 13.9581 19.1719 13.956C20.141 13.9539 20.9261 13.1688 20.9282 12.1998C20.9302 11.2307 20.1485 10.4423 19.1795 10.436C18.7107 10.436 18.2614 10.623 17.931 10.9555C17.6006 11.288 17.4165 11.7386 17.4195 12.2073"></path>
<path fill="#FA5A60" d="M12.7373 14.9036C12.7436 15.8741 13.5343 16.6564 14.5048 16.6523C15.4754 16.6482 16.2594 15.8591 16.2573 14.8886C16.2552 13.918 15.4679 13.1323 14.4973 13.1323C14.0286 13.1323 13.5792 13.3193 13.2488 13.6518C12.9184 13.9843 12.7343 14.4349 12.7373 14.9036Z"></path>
<path fill="#FA5A60" d="M25.9488 2.00799C25.7669 2.67769 26.1591 3.36875 26.8273 3.55594C27.4956 3.74313 28.1897 3.35639 28.3822 2.68966C28.5747 2.02293 28.1935 1.32574 27.5283 1.12799C26.8555 0.948458 26.1643 1.34705 25.9826 2.01927"></path>
<path fill="#FA5A60" d="M28.3291 41.529C28.1263 41.0963 27.6967 40.8151 27.219 40.8022C26.7413 40.7893 26.2972 41.0471 26.0714 41.4682C25.8456 41.8893 25.8766 42.4018 26.1517 42.7926C26.3545 43.2253 26.7841 43.5066 27.2618 43.5194C27.7395 43.5323 28.1835 43.2746 28.4094 42.8535C28.6352 42.4323 28.6042 41.9198 28.3291 41.529Z"></path>
<path fill="#FA5A60" d="M12.8165 40.4462C12.9499 39.9525 12.7725 39.427 12.3672 39.1152C11.9618 38.8033 11.4085 38.7665 10.9654 39.022C10.5224 39.2775 10.277 39.7748 10.3439 40.2819C10.4108 40.7889 10.7767 41.2056 11.2708 41.3375C11.9436 41.517 12.6349 41.1184 12.8165 40.4462Z"></path>
<path fill="#FA5A60" d="M2.85445 28.5097C3.33888 28.0142 3.33888 27.2225 2.85445 26.7271C2.61914 26.4887 2.29813 26.3545 1.96316 26.3545C1.62819 26.3545 1.30719 26.4887 1.07188 26.7271C0.714975 27.037 0.560882 27.5202 0.67248 27.9795C0.784077 28.4388 1.1427 28.7975 1.60202 28.9091C2.06134 29.0207 2.54453 28.8666 2.85445 28.5097Z"></path>
<path fill="#FA5A60" d="M10.4586 5.04326C10.6981 5.49667 11.1898 5.75827 11.6996 5.70352C12.2095 5.64877 12.6344 5.28873 12.7722 4.79481C12.91 4.30089 12.7327 3.77288 12.3248 3.46216C11.9169 3.15144 11.3607 3.12079 10.9212 3.3848C10.6317 3.55017 10.4201 3.82415 10.3333 4.14604C10.2464 4.46793 10.2915 4.81115 10.4586 5.09967"></path>
<path fill="#FA5A60" d="M26.2872 6.89309C26.2872 7.84019 25.5194 8.60797 24.5723 8.60797C23.6252 8.60797 22.8574 7.84019 22.8574 6.89309C22.8574 5.946 23.6252 5.17822 24.5723 5.17822C25.0271 5.17822 25.4633 5.3589 25.7849 5.6805C26.1065 6.0021 26.2872 6.43828 26.2872 6.89309Z"></path>
<path fill="#FA5A60" d="M31.3754 8.74367C31.3754 9.68453 30.6127 10.4473 29.6719 10.4473C28.731 10.4473 27.9683 9.68453 27.9683 8.74367C27.9683 7.8028 28.731 7.04008 29.6719 7.04008C30.1246 7.03705 30.5597 7.21556 30.8798 7.5357C31.2 7.85585 31.3785 8.29093 31.3754 8.74367Z"></path>
<path fill="#FA5A60" d="M35.3578 12.2298C35.3578 12.8525 34.9814 13.4133 34.4053 13.6494C33.8292 13.8855 33.1675 13.7501 32.7305 13.3066C32.2935 12.863 32.1679 12.1994 32.4125 11.6269C32.6571 11.0543 33.2235 10.6863 33.846 10.6955C34.6934 10.6955 35.3804 11.3824 35.3804 12.2298"></path>
<path fill="#FA5A60" d="M17.4307 6.89309C17.4308 7.83575 18.1918 8.60152 19.1345 8.6076C20.0771 8.61368 20.8479 7.85778 20.8603 6.91521C20.8726 5.97264 20.1218 5.19683 19.1794 5.17822C18.2367 5.18442 17.4758 5.95039 17.4758 6.89309"></path>
<path fill="#FA5A60" d="M12.3428 8.74363C12.3428 9.6845 13.1055 10.4472 14.0464 10.4472C14.9872 10.4472 15.75 9.6845 15.75 8.74363C15.75 7.80276 14.9872 7.04004 14.0464 7.04004C13.5945 7.04004 13.1612 7.21952 12.8417 7.53901C12.5223 7.85849 12.3428 8.29181 12.3428 8.74363Z"></path>
<path fill="#FA5A60" d="M8.19092 12.2183C8.19092 12.913 8.60998 13.539 9.25217 13.8037C9.89436 14.0685 10.6328 13.9197 11.1224 13.4269C11.6119 12.9341 11.7559 12.1946 11.4869 11.5542C11.2179 10.9138 10.5891 10.4989 9.89451 10.5035C8.95182 10.5097 8.19092 11.2756 8.19092 12.2183Z"></path>
<path fill="#FA5A60" d="M4.0166 16.2914C4.0166 17.1014 4.67325 17.758 5.48327 17.758C6.29329 17.758 6.94993 17.1014 6.94993 16.2914C6.94993 15.4814 6.29329 14.8247 5.48327 14.8247C4.67581 14.8308 4.02274 15.4839 4.0166 16.2914Z"></path>
<path fill="#FA5A60" d="M17.4419 37.6371C17.442 36.693 18.2052 35.9265 19.1493 35.9224C20.0935 35.9183 20.8633 36.6782 20.8716 37.6223C20.8798 38.5664 20.1234 39.3396 19.1793 39.352C18.2322 39.352 17.4645 38.5842 17.4645 37.6371"></path>
<path fill="#FA5A60" d="M12.4102 35.7866C12.4102 35.0976 12.8253 34.4764 13.4618 34.2127C14.0984 33.9491 14.8312 34.0948 15.3184 34.582C15.8056 35.0693 15.9514 35.802 15.6877 36.4386C15.424 37.0752 14.8028 37.4902 14.1138 37.4902C13.661 37.4933 13.226 37.3148 12.9058 36.9946C12.5857 36.6745 12.4072 36.2394 12.4102 35.7866Z"></path>
<path fill="#FA5A60" d="M8.19096 32.3004C8.18639 31.6058 8.60129 30.9771 9.24172 30.7081C9.88215 30.4391 10.6216 30.583 11.1144 31.0725C11.6072 31.5621 11.756 32.3006 11.4912 32.9428C11.2265 33.5849 10.6005 34.004 9.90583 34.004C9.45206 34.007 9.01584 33.8289 8.69391 33.509C8.37198 33.1892 8.19092 32.7542 8.19096 32.3004Z"></path>
<path fill="#FA5A60" d="M5.48291 27.5961C5.49537 26.6506 6.27086 25.8936 7.21641 25.9039C8.16196 25.9143 8.92069 26.6881 8.91244 27.6336C8.90419 28.5792 8.13209 29.3397 7.1865 29.3335C6.24381 29.3273 5.48291 28.5614 5.48291 27.6186"></path>
<path fill="#FA5A60" d="M26.2872 37.6367C26.2872 36.6897 25.5194 35.9219 24.5723 35.9219C23.6252 35.9219 22.8574 36.6897 22.8574 37.6367C22.8574 38.5838 23.6252 39.3516 24.5723 39.3516C25.0271 39.3516 25.4633 39.1709 25.7849 38.8493C26.1065 38.5277 26.2872 38.0916 26.2872 37.6367Z"></path>
<path fill="#FA5A60" d="M31.3755 35.7866C31.3755 35.0976 30.9604 34.4764 30.3238 34.2127C29.6872 33.9491 28.9545 34.0948 28.4673 34.582C27.9801 35.0693 27.8343 35.802 28.098 36.4386C28.3617 37.0752 28.9829 37.4902 29.6719 37.4902C30.1246 37.4933 30.5597 37.3148 30.8799 36.9946C31.2 36.6745 31.3785 36.2394 31.3755 35.7866Z"></path>
<path fill="#FA5A60" d="M35.3578 32.3003C35.3531 31.6787 34.9739 31.1214 34.3975 30.8888C33.821 30.6563 33.1612 30.7945 32.7266 31.2389C32.2919 31.6832 32.1683 32.346 32.4136 32.9171C32.6588 33.4883 33.2245 33.8551 33.846 33.8459C34.6934 33.8459 35.3803 33.159 35.3803 32.3116"></path>
<path fill="#FA5A60" d="M4.51273 22.2705C4.51895 23.2099 5.28441 23.967 6.22379 23.9628C7.16318 23.9587 7.92193 23.1949 7.91987 22.2555C7.91781 21.3161 7.15572 20.5557 6.21632 20.5557C5.76254 20.5557 5.32751 20.7367 5.0077 21.0586C4.68788 21.3805 4.50973 21.8168 4.51273 22.2705Z"></path>
</svg>
